<?xml version="1.0" standalone="no"?>
<!DOCTYPE svg PUBLIC "-//W3C//DTD SVG 20010904//EN"
 "http://www.w3.org/TR/2001/REC-SVG-20010904/DTD/svg10.dtd">
<svg version="1.0" xmlns="http://www.w3.org/2000/svg"
 width="260.000000pt" height="260.000000pt" viewBox="0 0 260.000000 260.000000"
 preserveAspectRatio="xMidYMid meet">
<metadata>
Created by potrace 1.14, written by Peter Selinger 2001-2017
</metadata>
<g transform="translate(0.000000,260.000000) scale(0.100000,-0.100000)"
fill="#000000" stroke="none">
<path d="M0 1300 l0 -1300 1300 0 1300 0 0 1300 0 1300 -1300 0 -1300 0 0
-1300z m710 662 c108 -54 108 -221 0 -274 -106 -52 -220 20 -220 137 0 88 65
155 150 155 19 0 51 -8 70 -18z m1381 -42 c16 -9 19 -22 19 -95 0 -73 -3 -86
-19 -95 -13 -6 -201 -10 -540 -10 -606 0 -561 -8 -561 103 0 40 5 70 16 85
l15 22 525 0 c343 0 532 -4 545 -10z m-1343 -493 c33 -33 36 -42 40 -99 2 -50
-1 -70 -17 -95 -56 -89 -206 -89 -262 0 -16 25 -19 45 -17 94 3 53 8 67 33 94
41 42 60 49 128 46 51 -3 62 -7 95 -40z m1350 -19 c19 -19 16 -163 -4 -182
-14 -14 -76 -16 -540 -16 -609 0 -564 -8 -564 103 0 40 5 70 16 85 l15 22 533
0 c400 0 535 -3 544 -12z m-1371 -470 c43 -30 63 -74 63 -138 0 -49 -3 -56
-44 -96 -44 -44 -61 -50 -136 -44 -33 2 -84 37 -104 71 -21 35 -21 123 0 157
28 48 73 72 133 72 40 0 64 -6 88 -22z m1371 -40 c16 -16 16 -160 0 -176 -9
-9 -145 -12 -550 -12 -616 0 -558 -10 -558 100 0 110 -58 100 558 100 405 0
541 -3 550 -12z"/>
</g>
</svg>
